<?xml version="1.0" encoding="utf-8"?>
<!-- Generator: Adobe Illustrator 28.2.0, SVG Export Plug-In . SVG Version: 6.00 Build 0)  -->
<svg version="1.1" id="Layer_1" xmlns="http://www.w3.org/2000/svg" xmlns:xlink="http://www.w3.org/1999/xlink" x="0px" y="0px"
	 viewBox="0 0 284.81 281.83" style="enable-background:new 0 0 284.81 281.83;" xml:space="preserve">
<style type="text/css">
	.st0{fill:none;stroke:#000000;stroke-width:2;stroke-linecap:round;stroke-linejoin:round;stroke-miterlimit:10;}
</style>
<path class="st0" d="M166.47,79.07c2.88-1.48,3.04-3.86,2.2-6.58c-2.67-8.62-9.7-13.96-18.44-12.32
	c-6.3,1.18-10.89,6.21-10.94,12.76c-0.08,9.51-0.02,19.01-0.02,28.52c0,26.33-0.01,52.65,0.02,78.98c0,2.93,0.27,5.85,0.42,8.78"/>
<path class="st0" d="M139.26,197.1c0,20.04-0.01,40.08,0.01,60.11c0,1.61-0.31,3.27,0.43,4.83"/>
<path class="st0" d="M197.18,114.17c-1.17,1.02-2.21,2.63-3.54,2.93c-1.77,0.4-3.76,2.03-5.72-0.26c-3.11-3.62-7.12-3.68-11.37-2.26
	c-1.26,0.42-2.64,0.5-4.2,0.77c-1.68,9.55-7.87,15.07-16.4,18.58c-13.59,5.6-14.7,21.71-5.6,31.47c2.38,2.55,6.37,3.28,9.98,3.58
	c6.38,0.53,10.91,4.95,11.4,11.44c0.1,1.37-0.27,2.82,0.89,3.95"/>
<path class="st0" d="M108.99,74.68c-5.72,0.34-9.98,3.06-10.97,7.02c-1.47,5.89,0.73,10.88,6.84,15.1
	c-1.95,4.6-2.69,9.49-0.64,14.28c1.75,4.1,3.41,8.25,5.33,12.25c2.32,4.86,6.83,7.61,11.72,9.74c5.06,2.2,9.76,4.9,11.86,10.5
	c3.72,9.91-0.68,24.26-13.59,25.24c-9.44,0.72-9.96,2.68-12.8,12.92c-0.69,2.48-0.07,4.55,0.96,6.58
	c2.37,4.68,3.34,10.08,7.83,13.66c5.4,4.3,15.54,5.44,20.81-2.59c1.98-3.01,4.15-5.49,3.36-9.31"/>
<path class="st0" d="M163.4,203.24c0.15,1.02,0.45,2.05,0.41,3.07c-0.54,13.91,0.88,27.78,0.98,41.69
	c0.03,4.24,0.95,8.48,1.46,12.73"/>
<path class="st0" d="M116.45,204.56c-1.65,8.26-1.21,16.69-1.6,25.02c-0.49,10.54-0.96,21.07-1.91,31.59"/>
<path class="st0" d="M126.54,70.29c3.26,8.17,1.03,23.22-6.12,29.86c-4.75,4.41-5.01,7.67-1.8,13.16c2.23,3.82,5.5,5.98,9.68,7"/>
<path class="st0" d="M13.33,120.31c13.46,1.9,26.91,3.8,40.37,5.7c2.05,0.29,4.1,0.58,6.14,0.88"/>
<path class="st0" d="M265.41,118.56c0.21,1.02,0.87,1.99-1.09,2.24c-14.34,1.82-28.67,3.75-43.01,5.67
	c-0.59,0.08-1.17,0.28-1.76,0.43"/>
<path class="st0" d="M166.69,15c-0.47,13-3.77,25.65-4.74,38.6c-0.19,2.59,0.49,5.48-1.19,7.91"/>
<path class="st0" d="M112.5,16.32c1.76,13.75,3.55,27.49,5.2,41.25c0.15,1.27,0.5,2.37,0.94,3.5"/>
<path class="st0" d="M181.83,80.82c3.72-0.14,8.06-2.43,10.13,3.06c0.34,0.91,1.48,0.19,2.15,0.47c8.44,3.57,15.11,12.31,13.74,21
	c-1.04,6.6,0.87,12.62,0.77,18.92c-0.11,6.78-2.23,9.5-8.31,12.39c-4.02,1.92-8.17,3.28-12.3,4.81c-1.31,0.48-1.84-0.1-2.67-0.53"/>
<path class="st0" d="M139.26,16.32c0,12.43-0.01,24.86,0.01,37.3c0,1.47-0.27,2.98,0.43,4.39"/>
<path class="st0" d="M167.35,200.61c4.77,5.26,6.59,12.24,10.52,18c6.11,8.96,11.77,18.21,17.05,27.68
	c0.78,1.39,1.63,1.23,2.71,1.28"/>
<path class="st0" d="M250.28,78.19c-6.8,3.01-12.87,7.31-19.3,10.98c-7.45,4.26-14.56,9.12-22.38,12.71"/>
<path class="st0" d="M31.76,79.51c11.55,6.87,23.08,13.8,34.71,20.55c1.23,0.71,2.66,1.71,4.35,1.39"/>
<path class="st0" d="M112.06,200.17c-5.12,8.48-10.22,16.98-15.36,25.45c-3.92,6.45-7.89,12.87-11.84,19.31"/>
<path class="st0" d="M54.14,146.2c-5.24-0.96-10.54-0.42-15.8-0.38c-7.02,0.05-14.06-0.62-21.06,0.38"/>
<path class="st0" d="M262.12,146.2c-5.24-0.96-10.54-0.42-15.8-0.38c-7.02,0.05-14.06-0.62-21.06,0.38"/>
<path class="st0" d="M30,100.57c11.12,4.39,22.24,8.77,33.34,13.19c0.66,0.26,1.18,0.85,1.76,1.29"/>
<path class="st0" d="M249.62,100.57c-11.92,4.31-23.83,8.66-35.32,14.04"/>
<path class="st0" d="M153.74,70.29c-0.54,0.31-1.62-0.63-1.72,0.44c-0.98,10.57-1.72,21.07,6.93,29.46c1.3,1.26,3.77,1.79,3.56,4.33
	c-0.26,3.18-0.37,6.63-2.3,9.13c-2.38,3.11-5.1,6.27-9.55,6.66"/>
<path class="st0" d="M218.68,179.99c1.44-5.51,1.14-10.92-1.26-16.74c4.5,0.33,8.3,1.88,12.24,2.64c7.81,1.51,15.22,4.79,23.24,5.32
	"/>
<path class="st0" d="M148.48,205c-0.88,2.59-0.43,5.27-0.41,7.9c0.07,8.35-0.06,16.69-0.91,25.01"/>
<path class="st0" d="M130.93,205c0.96,5.24,0.3,10.53,0.41,15.8c0.12,5.7,0.03,11.41,0.03,17.11"/>
<path class="st0" d="M89.68,29.04c6,9.65,11.93,19.34,18.07,28.91c0.68,1.05,0.56,2.2,1.23,3.13"/>
<path class="st0" d="M59.4,162.88c-7.86,2.87-16.08,4.45-24.17,6.44c-2.47,0.61-4.65,2.54-7.42,1.9"/>
<path class="st0" d="M201.13,165.51c1.63,2.07,2.93,4.1,3.24,7c0.29,2.74,2.42,4.51,5.51,5.37c13.99,3.88,27.14,9.84,39.95,16.59"/>
<path class="st0" d="M150.23,166.39c-4.36,2.44-5.6,6.51-4.72,10.95c0.83,4.2,2.44,8.12,7.31,9.78c3.16,1.07,5.31-0.92,7.93-1.42"/>
<path class="st0" d="M102.4,102.76c-2.93-0.15-6,0.23-8.75-0.54c-6.87-1.92-12.23,0.81-17.08,5c-2.18,1.88-4.41,3.21-6.92,4.61
	c-9.87,5.49-12.68,20.01-4.11,26.92c0.32,0.26,0.59,0.58,0.88,0.87"/>
<path class="st0" d="M188.41,30.8c-6,9.51-11.95,19.04-18.06,28.48c-0.59,0.91,0.24,1.21,0.07,1.8"/>
<path class="st0" d="M128.73,166.39c3.72,1.95,5.75,5.12,5.18,9.2c-0.71,5.09-2.45,9.61-8.21,11.54c-2.96,0.99-4.76-0.81-7.06-1.44"
	/>
<path class="st0" d="M85.73,191.4c2.09,0.39,4.24,1.23,6.13-0.45c1.69-1.49,3.46-2.96,2.23-5.7c-1.06-2.35-2.75-4.28-5.26-3.8
	c-2.43,0.47-5.01,2.02-4.78,5.12c0.23,3.08,0.35,6.17,0.58,9.2c0.45,5.88,7.57,11.02,13.81,11.49c3.25,0.25,6.07-1.47,9.22-1.38"/>
<path class="st0" d="M206.4,111.1c-3.48-3.56-6.97-7.04-11.84-8.81c-4.73-1.72-9.38,0.13-14.05,0.2c-1.38,0.02-2.96-0.19-4.37,0.44
	c-1.55-3.39-2.21-6,1.63-8.65c3.52-2.43,4.78-10.26,3.17-13.45c-2.27-4.52-5.63-6.27-10.97-5.7"/>
<path class="st0" d="M114.25,64.15c-4.24-3.18-12.27-3.05-17.1,0.46c-5.33,3.88-8.82,8.87-8.78,15.78c0.01,2.44-0.91,3.71-3.49,4.47
	c-9.85,2.93-16.84,16.83-13.22,25.82c0.49,1.22,0.6,2.47,0.11,3.96c-2.49,7.59-2.03,14.88,3,21.48"/>
<path class="st0" d="M78.71,164.19c-1.79,2.52-3.56,4.76-3.76,8.32c-0.16,2.83-3.12,4.51-6.31,5.35
	c-12.9,3.4-24.66,9.71-36.88,14.84"/>
<path class="st0" d="M193.23,191.4c1.55-2.18,2.13-4.74,0.77-6.96c-1.1-1.8-2.6-3.65-5.62-2.79c-3.29,0.93-3.59,3.1-3.49,5.8
	c0.1,2.85,1.64,3.9,4.36,4.55c1.56,0.37,2.35-0.71,3.55-0.6"/>
<path class="st0" d="M77.39,148.4c-0.41,2.46,2.25,2.84,3.08,2.88c2.43,0.11,3.42,1.53,3.89,3.28c2.02,7.49,7.12,11.05,14.53,11.83"
	/>
<path class="st0" d="M87.92,204.12c-8.48,8.92-16.97,17.84-25.45,26.77"/>
<path class="st0" d="M191.04,204.12c8.34,8.78,16.67,17.55,25.01,26.33"/>
<path class="st0" d="M207.71,43.09c2.45,1.44,4.29,1.16,6.23-1.24c1.64-2.03,0.43-3.23-0.58-4.41c-1.07-1.26-2.61-1.92-4.33-0.92
	c-1.69,0.98-3.03,2.05-2.24,4.4c0.48,1.43,0.89,2.87-0.36,4.4c-6.51,7.98-12.91,16.06-19.34,24.1"/>
<path class="st0" d="M215.17,235.28c1.25,3.71,4.22,5.57,6.55,3.9c1.67-1.2,3.37-2.74,2.64-5.21c-0.68-2.32-2.13-3.46-4.8-3.61
	c-3.54-0.21-3.85,2.1-4.39,4.48"/>
<path class="st0" d="M201.13,150.15c-3.88,1.09-6.33,3.1-7.63,7.41c-1.87,6.21-7.54,8.01-13.43,8.83"/>
<path class="st0" d="M193.23,191.84c2,3.52,0.3,8.1-3.91,11.89c-3.76,3.38-8.16,3.68-12.76,3.43c-1.47-0.08-2.93-0.55-4.39-0.84"/>
<path class="st0" d="M71.69,43.96C78.12,52.15,84.56,60.34,91,68.54"/>
<path class="st0" d="M105.48,115.05c-1.76,0.55-3.24-0.45-4.83-0.88c-2.11-0.58-4.17-1.05-6.15,0.44
	c-6.32,4.75-6.33,4.74-12.28-0.43"/>
<path class="st0" d="M117.76,144.01c-2.03,0.53-2.45,2.64-2.94,4c-2.12,5.84-6.39,9.91-10.7,13.95c-1.76,1.65-4.45,2.56-4.74,5.32
	c-0.43,4.05-0.2,8.19,1.8,11.79c1.12,2.02,2.24,4.38,4.73,5.32"/>
<path class="st0" d="M262.56,146.64c2.61,3.97,5.64,4.71,7.44,1.74c1.36-2.24,1.42-4.01-1.23-5.79c-2.73-1.84-3.9-0.14-5.3,1.44
	c-0.49,0.56-0.62,1.43-0.91,2.17"/>
<path class="st0" d="M161.64,144.01c2.1,0.26,2.03,2.41,2.5,3.56c2.29,5.7,6.29,9.95,10.66,14c2.02,1.87,4.89,3,4.89,6.57
	c0.01,4.89,0.4,10.29-3.69,13.44c-4.77,3.68-5.56,9.01-7.73,13.79c-3.39,7.45-10.41,11.3-18.04,9.65c-4.56-0.98-6.67-4.66-9.21-7.92
	"/>
<path class="st0" d="M205.08,136.55c6.01,2.48,10.82,6.16,12.71,12.73c0.87,3.02,0.75,6.21,0.28,9.18
	c-0.28,1.74,0.58,2.94,0.61,4.41"/>
<path class="st0" d="M16.84,145.76c-2.87-4.3-4.24-4.89-6.6-3.1c-1.56,1.18-1.84,2.64-1.76,4.42c0.09,2.05,1.72,2.67,3.12,2.98
	c1.76,0.39,3.56-0.05,4.38-2.1c0.24-0.61,0.58-1.17,0.87-1.76"/>
<path class="st0" d="M93.63,141.37c-4.74,0.65-8.5-2.28-12.7-3.58c-1.9-0.59-3.84-2.15-5.69-1.56c-3.21,1.03-7.07,2.06-9.06,4.43
	c-3.73,4.43-6.33,9.86-5.42,16.07c0.7,4.78,0.08,9.41-0.93,14.04c-0.69,3.18-0.65,6.26,0.89,9.22"/>
<path class="st0" d="M56.77,65.03c7.31,7.31,14.63,14.63,21.94,21.94"/>
<path class="st0" d="M222.63,64.59c-7.31,7.31-14.63,14.63-21.94,21.94"/>
<path class="st0" d="M139.7,67.66c-3.24-2.87-5.65-6.75-10.52-7.5c-9.3-1.43-15.66,3.45-18.51,11.43c-1.02,2.87-1.12,5.1,1.39,7.05"
	/>
<path class="st0" d="M69.06,193.59c-5.71,4.78-11.14,9.95-18,13.15c-1.08,0.5-0.89,1.35-0.87,2.21"/>
<path class="st0" d="M209.91,193.59c4.94,5.27,10.71,9.45,17.15,12.65c1.47,0.73,1.21,1.64,1.28,2.71"/>
<path class="st0" d="M139.7,15.88c1.65-0.83,3.18-1.49,3.18-3.95c-0.01-1.95-1.06-2.88-2.34-3.42c-1.2-0.51-2.71-0.19-3.46,1.24
	c-0.65,1.23-1.62,2.55-0.43,3.92c0.74,0.85,1.73,1.48,2.61,2.22"/>
<path class="st0" d="M99.33,127.33c-1.42-3.05-4.55-2.99-6.48-2c-2.5,1.28-3.19,4.15-2.37,7.28c0.81,3.09,2.29,5.84,4.12,8.24
	c2.24,2.95,10.69,2.46,13.95-0.36c1.09-0.95,1.86-2.09,2.19-3.51"/>
<path class="st0" d="M139.26,262.48c-2.02,1.22-4.53,2.23-2.19,5.27c1.21,1.57,2.8,1.97,4.36,0.83c1.76-1.29,2.18-3.03,0.46-4.77
	c-0.6-0.6-1.02-1.61-2.18-1.33"/>
<path class="st0" d="M231.85,61.08c-1.79-4.88-5.43-6.41-8.34-3.51c-1.78,1.78-1.78,5.04,0,6.58c2.43,2.11,5.29,1.78,7.44-0.89
	c0.4-0.5,0.6-1.16,0.89-1.74"/>
<path class="st0" d="M180.07,126.89c1.75-1.84,3.82-3.1,6.1-1.26c2.28,1.84,3.65,3.8,2.39,7.46c-2.92,8.49-4.23,9.82-12.44,9.64
	c-3.34-0.07-5.22-2.1-7.02-4.42"/>
<path class="st0" d="M165.59,63.71c4.42-3.54,9.05-2.29,13.59-0.42c7.13,2.94,12.43,11.2,11.42,17.53"/>
<path class="st0" d="M217.37,136.11c9.1,5.81,9.78,16.76,2.63,25.01"/>
<path class="st0" d="M61.6,136.11c-8.76,7.78-9.57,17.01-2.19,25.01"/>
<path class="st0" d="M218.68,181.3c-2.95,7.52-8.07,12.62-16.25,13.98c-2.42,0.4-4.96,0.06-7.45,0.06"/>
<path class="st0" d="M60.72,180.87c3.38,11.2,12.7,16.27,23.26,14.04"/>
<path class="st0" d="M73.88,173.84c-3.68-2.07-7.6-3.79-9.72-7.86c-0.43-0.82-1.15-2.01-2.57-1.79"/>
<path class="st0" d="M217.37,163.75c-3.85,3.62-7.17,7.84-11.85,10.53"/>
<path class="st0" d="M208.15,110.66c4,2.24,6.94,5.34,8.83,9.63c2.43,5.51,3.13,13.51-4.44,19.77"/>
<path class="st0" d="M176.56,103.2c-0.73,3.8-1.46,7.61-2.19,11.41"/>
<path class="st0" d="M62.47,231.33c2.02,3.58,1.67,5.67-0.84,7.51c-1.67,1.22-3.59,0.9-4.78,0.24c-1.65-0.92-2.36-2.87-1.9-5.13
	c0.43-2.15,1.69-3.17,3.58-3.44c1.13-0.16,2.33,0.24,3.5,0.38"/>
<path class="st0" d="M97.58,80.82c-2.93-0.66-5.85-0.66-8.78,0"/>
<path class="st0" d="M51.5,56.25c-1.62,0.51-2.96,1.06-3.6,3.04c-0.86,2.67-0.13,4.63,1.87,6.12c1.44,1.08,5.94-0.51,6.53-2.16
	c0.91-2.55,1-5-1.76-6.54c-0.73-0.41-1.73-0.33-2.61-0.48"/>
<path class="st0" d="M68.18,36.07c-3.25,1.71-4.58,4.26-3.04,6.12c1.08,1.3,2.44,2.52,4.35,1.75c1.71-0.69,3.23-1.45,3.16-3.92
	c-0.08-2.87-1.8-3.54-4.03-3.95"/>
</svg>
