<?xml version="1.0" encoding="utf-8"?>
<!-- Generator: Adobe Illustrator 28.2.0, SVG Export Plug-In . SVG Version: 6.00 Build 0)  -->
<svg version="1.1" id="Layer_1" xmlns="http://www.w3.org/2000/svg" xmlns:xlink="http://www.w3.org/1999/xlink" x="0px" y="0px"
	 viewBox="0 0 612 1024" style="enable-background:new 0 0 612 1024;" xml:space="preserve">
<path d="M393.7,483c-2.2-2.8-3.6-5.8-3.5-9.4c0-0.6-0.6-1.4-1.1-1.7c-2.9-1.6-5.8-3.2-8.9-4.5c-1.3-0.5-3.2-0.6-4.6-0.1
	c-4.2,1.4-6.8,1-9.9-2.3c-0.9-0.9-1.8-2.4-3-1.1c-0.7,0.7-0.6,2.2-0.6,3.3c0,0.9,0.5,1.8,0.8,2.7c1,3.4-0.6,6.5-3.9,7.5
	c-3.2,1-6.4,1.9-9.6,2.6c-4.7,1-7.7-1.4-8.3-6.2c-0.1-0.8-0.1-1.6-0.5-2.2c-0.5-0.9-1.3-2.3-2-2.3c-1.1,0-2.7,0.7-3.1,1.6
	c-1.3,3-2.5,5.8-5.6,7.6c-1,0.6-1.3,2.5-2,3.8c-5.5,11.6-11,23.2-16.2,34.1c1.7,3.3,3.7,5.9,4.5,8.9c1.4,5.2-0.1,9.9-4.2,13.6
	c-1.1,1-1.3,1.8-0.7,3.2c6.5,15.1,13,30.3,19.4,45.5c0.8,1.9,1.3,3.4,4.3,3.3c5.9-0.1,10.7,5.5,10.6,11.3
	c-0.1,6.3-5.2,11.5-11.3,11.7c-6.2,0.2-10.9-3.2-12.5-8.8c-0.9-3.4,0.2-6.3,1.9-9.2c0.5-0.8,0.7-2.1,0.4-2.9
	c-6.7-15.9-13.4-31.8-20.2-47.6c-0.6-1.3-1.4-1.8-2.9-1.9c-7.8-0.5-13-4.3-14.6-10.9c-0.4-1.6-0.1-3.4-0.4-5.1
	c-0.1-0.8-0.6-2-1.3-2.3c-7.4-3.5-14.8-7-22.2-10.3c-0.7-0.3-2.1,0.1-2.9,0.6c-8.3,5-18.8,2.4-23.4-6c-0.2-0.4-0.6-0.9-0.6-1.4
	c-0.2-3.2-2.4-3.9-5-4.7c-18.8-5.5-37.6-11.2-56.4-16.9c-1.5-0.5-2.5-0.5-3.8,0.8c-4.6,4.6-10.2,5.5-16.1,3.3
	c-6.1-2.3-9-7.2-9.3-13.7c0-0.8-0.6-1.9-1.3-2.4c-16.4-11.7-32.8-23.2-49.2-34.9c-1.1-0.8-1.9-0.9-3.2-0.3
	c-7.1,3.4-14.7,1.1-18.4-5.4c-3.8-6.7-0.9-16.3,5.2-19.1c0.8-0.4,1.4-2.2,1.4-3.3c0-10.7-0.1-21.3-0.2-32
	c-0.1-5.8-0.1-11.6-0.3-17.4c0-0.8-0.8-2-1.6-2.3c-5.3-2.6-8-6.8-8.1-12.6c-0.2-5.4,3.4-10.7,8.5-12.6c5.4-2,10.4-1.2,14.6,2.9
	c0.4,0.4,0.7,1,1,1.5c30.2-15.5,59.9-30.7,89.7-45.9c1.7-0.9,1.4-2,1.4-3.4c-0.3-10.3,8.9-17.2,18.4-13.9c3.6,1.2,6.2,3.6,7.7,7
	c0.8,1.8,1.7,2.1,3.5,2.1c34.4,0,68.8,0,103.2,0.1c2.1,0,3.3-0.5,4.3-2.5c2.8-5.2,8.3-8.1,13.8-7.2c5.6,0.9,9.6,3.8,11.2,9.4
	c0.5,1.7,0.9,3.6,0.6,5.3c-0.4,2.3,0.2,3.5,2,4.8c21.1,15.6,42.2,31.3,63.3,46.9c0.9,0.7,1.9,1.4,3,2.2c3.6-2.7,7.7-4.1,12.2-3.3
	c5.6,1,9.5,4.4,11.3,9.6c1.9,5.5,0.8,10.6-3.5,14.7c-1,0.9-1.5,1.4-0.8,2.9c4.8,9.8,9.5,19.7,14.2,29.7c0.7,1.5,1.3,2.1,3.2,1.7
	c9.1-1.9,17.7,6.3,16.7,15.5c-0.9,7.7-4.2,11.4-12.4,13.7c-0.4,18.4-0.9,36.9-1.3,55.3c8.8,4,10.4,11.2,9,17.1
	c-2.5,11.2-16,15.2-24.6,7.4c-1-0.9-1.7-1.3-3.1-0.8c-20.2,7.4-40.4,14.7-60.6,22.1c-0.3,0.1-0.6,0.3-1,0.5
	c1.1,9-3.3,14.3-11.6,17.1c0.4,6.3,0.8,12.7,1.3,19c0.4,6,1,12,1.4,18.1c0.2,3.3,0.5,6.6,0.6,9.9c0.1,1.6,0.6,2.5,2.2,3.2
	c6.1,2.6,9.3,8.6,8.4,15.4c-0.8,6.1-5.7,10.7-12.5,11.7c-5.9,0.9-12.1-2.6-14.8-8.3c-3.2-7-0.3-15.2,6.8-18.6c1.8-0.8,2-1.7,1.8-3.5
	c-0.7-8.4-1.2-16.8-1.8-25.2c-0.5-7.1-1-14.3-1.7-21.4c-0.1-0.7-0.9-1.5-1.6-1.9c-7.1-4-9.9-11.7-7-19c2.5-6.2,9.3-9.9,15.9-8.7
	c0.9,0.2,2-0.4,2.9-0.8c0.5-0.2,0.8-0.8,1.2-1.3C375.7,505.1,384.7,494.1,393.7,483z M266.8,507.6c7.4,3.4,14.7,6.8,22,10
	c0.6,0.3,1.7-0.1,2.3-0.6c3.1-2.6,6.7-3.7,10.7-3.3c1.5,0.2,2.3-0.1,3-1.5c5.3-11.3,10.6-22.6,16-33.8c1.1-2.3,1.2-3.4-1.5-4.4
	c-4.7-1.8-6.4-6-4.5-10c0.6-1.1,1.6-2.1,2-3.3c0.3-1,0.5-2.5,0-3.1c-0.7-0.8-2.1-1.2-3.2-1.3c-0.8-0.1-1.7,0.7-2.6,1
	c-3.7,1.4-7.6-0.2-8.6-3.6c-1-3.2-1.9-6.5-2.6-9.8c-1-4.6,1.4-7.7,6.1-8.2c0.9-0.1,2,0.1,2.8-0.3c0.8-0.4,1.9-1.2,1.9-1.9
	c0-0.9-0.7-1.9-1.4-2.6c-0.5-0.5-1.4-0.6-2.1-0.9c-5-1.6-6.6-6.6-3.5-10.9c1.6-2.3,3.3-4.5,4.9-6.9c2.5-3.6,5.9-4.5,9.7-2.2
	c0.9,0.6,1.6,1.6,2.5,2.1c0.7,0.4,1.9,0.9,2.4,0.7c0.7-0.4,1.4-1.5,1.4-2.4c0-1.3-0.4-2.7-0.8-4c-1-3.1,0.8-7.4,4.7-8
	c2.6-0.4,5.1-1.2,7.6-2.1c6.2-2.3,10.2,2.6,9.9,7.5c-0.1,1.9,0.6,2.8,2.4,3.2c1.9,0.4,2.7-0.5,3.2-2c2.8-8.6,5.6-17.3,8.3-25.9
	c0.2-0.6-0.2-1.5-0.6-2.1c-1.4-2-3-3.9-4.6-5.7c-0.4-0.5-1.3-1.1-1.9-1c-9.9,1.4-19.9,2.9-29.8,4.4c-1.6,0.2-2.6,0.9-3.3,2.5
	c-2.4,5.4-8.4,9.1-14.2,8.6c-1.9-0.2-2.5,0.5-3,2.1c-8.3,23.2-16.7,46.3-25.1,69.4c-3.9,10.9-7.9,21.7-11.8,32.6
	c-0.3,0.9-0.5,2.3,0,3.1C268.3,497.5,268.6,502.3,266.8,507.6z M254.2,348.6c22.7-18.3,44.9-36.2,67.1-54.1
	c-0.1-0.3-0.2-0.5-0.2-0.8c-0.8-0.1-1.5-0.4-2.3-0.4c-35-0.2-70-0.3-105-0.5c-1.3,0-1.8,0.5-2.5,1.6c-1.4,2.3-3.3,4.2-4.9,6.4
	c-0.5,0.7-1.2,1.8-1,2.5c2.3,8.9,4.8,17.7,7.2,26.5c0.5,1.8,1.3,2.6,3.4,2.4c3.6-0.3,5.7,1.3,6.7,4.9c0.4,1.3,0.3,2.7,0.8,4
	c0.3,0.9,1,2,1.9,2.4c2.3,1.2,3.5,0.7,4.8-1.8c3.4-6.8,8.1-7.8,13.9-3.1c1.3,1.1,2.7,2.2,4.3,2.8
	C251.7,342.5,253.5,344.7,254.2,348.6z M385.2,428.9c17.9-5,35.4-9.9,52.8-14.8c0.6-0.2,1.2-1.1,1.5-1.8c1-2.5,2-5,2.8-7.6
	c0.3-0.8,0.4-1.8,0.1-2.5c-4.9-10.4-9.8-20.7-14.8-31c-0.3-0.6-1.2-1.2-1.8-1.2c-5.5-0.4-9.8-2.5-12.6-7.4c-0.3-0.5-1.2-1.2-1.7-1.1
	c-7.9,1.2-15.7,2.6-23.6,3.9c-1.5,0.2-1.7,0.9-1.8,2.2c-0.2,3.5-1.6,6.4-4,8.9c-3.9,4.3-8.8,5.5-14.5,4.5
	c-1.7,5.1-3.3,10.1-4.9,15.1c-0.5,1.6-1.6,3.5-1.2,4.8c0.4,1.2,2.5,1.8,3.9,2.7c0.6,0.4,1.1,0.8,1.7,1.1c4.8,3.4,5.5,6.4,2.5,11.5
	c-0.7,1.2-1.5,2.3-0.2,3.6c1.3,1.4,2.5,1.2,4.1,0.5c5.5-2.5,10.1,0,11.1,6C384.8,427,385,427.8,385.2,428.9z M235.3,496.2
	c0.2-0.2,0.3-0.5,0.5-0.7c-0.3-0.1-0.7-0.2-0.9-0.4c-11.8-10.9-23.5-21.8-35.2-32.7c-15.1-14-30.2-28.1-45.4-42.1
	c-0.6-0.6-2.2-0.7-3.1-0.5c-5.9,1.9-11,1.1-15.6-3.3c-0.5-0.5-1.7-0.7-2.3-0.5c-10.5,3.5-20.9,7.2-31.4,10.4c-3,0.9-2.5,3-2.8,4.8
	c-0.1,0.9,1,2.2,1.8,2.8c4.3,3.2,8.7,6.3,13.1,9.4c11.5,8.2,23,16.3,34.5,24.5c0.4-0.4,0.7-0.6,0.9-0.9c4.6-4.8,9.9-6.7,16.4-4.4
	c5.9,2.1,9.1,7,9.3,14.1c0,1.6,0.8,1.9,2.1,2.3c13.1,3.9,26.2,7.8,39.3,11.6C222.7,492.6,229,494.4,235.3,496.2z M172.6,366.7
	c0.3-2.4,0.2-4.6,1-6.4c1.3-2.9,3-5.8,4.8-8.4c1.2-1.6,2.9-3.2,4.7-3.9c3.2-1.3,5.9,0.8,8.3,2.7c2.2,1.8,3.8,0.1,5.5-0.8
	c1.5-0.9,1.5-2.3,0.9-3.8c-0.3-0.7-0.6-1.4-0.8-2.2c-1.2-3.7,0.3-6.8,3.9-8.2c1.4-0.5,2.9-0.9,4.4-1.3c-0.1-0.5-0.1-1-0.2-1.4
	c-2.5-9.4-5-18.9-7.4-28.3c-0.4-1.5-1-1.8-2.3-2.2c-2-0.6-3.9-1.6-5.9-2.3c-0.9-0.3-2.1-0.5-2.9-0.2c-28.8,14.7-57.5,29.5-86.2,44.3
	c-1.1,0.6-2.1,1.2-3.1,1.8c0,0.3,0,0.5,0.1,0.8C122.5,353.6,147.6,360.2,172.6,366.7z M236.2,430c4.6,18.7,9.2,37.2,13.8,55.5
	c2.8,0.3,5.3,0.6,7.9,0.9c0.3-0.8,0.6-1.6,0.9-2.4c11.8-32.4,23.5-64.8,35.4-97.1c1-2.8,1.8-4.9-1.4-6.7c-0.7-0.4-1.2-1.3-1.5-2
	c-0.6-1.5-1.7-1.6-3.1-1.4c-4.2,0.7-8.4,1.4-12.6,2c-1.5,0.2-2.6,0.7-3.3,2.3c-1.3,2.8-3.7,4.4-6.8,4.8c-1.1,0.1-2.2,0.1-3.3,0.2
	c-2.2,0.2-3.2,1.5-3.3,3.5c-0.2,1.9,1,2.8,2.6,3.3c1.1,0.4,2.3,0.8,3.3,1.3c3.9,2,4.9,6.3,2.5,9.9c-2.3,3.4-4.5,6.8-6.7,10.2
	c-2.3,3.7-7,4.5-10.4,1.8c-1-0.8-1.9-1.7-3-2.4c-1.7-1.1-3.2-0.2-4.3,0.9c-0.6,0.6-0.5,1.9-0.5,2.9c0,0.7,0.4,1.3,0.5,2
	c1.3,4.6-0.1,7.5-4.4,9.5C237.7,429.3,237.1,429.6,236.2,430z M189,407.6c-2.5-4.8-3.2-5-8.2-3.8c-1.7,0.4-4.3,0.6-5.3-0.4
	c-2.9-2.6-5.4-1.7-8.3-0.5c-1.4,0.6-2.9,1.1-4.3,1.4c-1.9,0.5-3,1.3-2.6,3.5c0.2,1.1,0,2.4-0.4,3.5c-0.8,1.9-0.1,3,1.3,4.3
	c13.3,12.2,26.6,24.5,39.8,36.8c12.4,11.5,24.8,23.1,37.2,34.7c1,1,2.1,1.9,3.1,2.8c0.3-0.1,0.5-0.2,0.8-0.3
	c-0.1-1.2,0.1-2.5-0.2-3.7c-4.2-17-8.5-34.1-12.7-51.1c-0.6-2.4-1.3-3.2-3.8-2.7c-3.6,0.8-6.5-1.1-7.7-4.7c-0.5-1.4-0.5-3.1-1.1-4.4
	c-0.5-1.1-1.4-2.4-2.5-2.8c-3-1.3-4.6-0.4-6,2.7c-2.6,5.7-5.4,6.6-10.9,3.8c-2.9-1.5-5.9-3-8.9-4.5c-2.4-1.1-3.2-3.1-3.5-5.5
	C184.5,413,186.6,410.3,189,407.6z M325.8,301.2c-24.6,19.8-49.1,39.5-73.6,59.2c1.8,2,2.7,2.3,4.8,1.4c0.7-0.3,1.4-0.7,2.1-0.9
	c5.2-2,9.9,0.7,10.8,6.3c0.2,1,0.2,2.1,0.6,3c0.2,0.6,1.1,1.4,1.6,1.4c5.6-0.8,11.2-1.7,16.7-2.6c0.5-9.9,8.2-15.8,16.4-14.9
	c0.6,0.1,1.7-1.2,2-2c4.1-11.1,8.1-22.3,12.2-33.4C321.5,312.7,323.6,307,325.8,301.2z M359.6,351.1c-8-15.7-15.9-31.3-23.8-46.9
	c-0.3-0.5-0.9-0.9-1.4-1.3c-0.5,0.5-1.1,1-1.4,1.6c-6.3,16.9-12.6,33.8-18.9,50.8c-0.2,0.6-0.1,1.7,0.3,1.9c3.4,2.3,5,5.7,6,9.6
	c10.4-1.6,20.8-3.1,31.1-4.7c0.6-0.1,1.5-0.7,1.7-1.3C354,356.8,356.3,353.7,359.6,351.1z M87.7,386.5c0.2,0,0.4,0,0.6,0
	c0,8.3,0,16.5,0,24.8c0,1.4,0.5,1.8,1.8,2.5c2.2,1.1,4.3,2.6,6.2,4.3c1.1,1,1.7,1.4,3.2,0.9c9.6-3.3,19.3-6.6,29-9.7
	c2.2-0.7,3.6-1.4,3.3-4.1c-0.1-1.3,0.4-2.7,1-3.9c0.6-1.3,0.4-2.1-0.7-3.1c-4.8-4.3-9.4-8.6-14.2-12.9c-8.9-8.1-17.7-16.2-26.6-24.3
	c-0.6-0.6-1.7-0.7-2.5-1.1c-0.3,0.9-0.8,1.8-0.8,2.7C87.7,370.5,87.7,378.5,87.7,386.5z M96.3,354.7c0.4,0.5,0.5,0.8,0.7,1
	c13.8,12.6,27.6,25.2,41.5,37.7c0.4,0.4,1.5,0.7,2,0.4c6.3-2.6,11.4-0.7,16.1,3.6c0.4,0.4,1.4,0.5,1.9,0.4c2.9-0.9,5.8-2.1,8.7-2.9
	c2.2-0.6,2.5-1.5,1.7-3.6c-2.7-7.1-0.2-10.8,7.3-11.6c1.2-0.1,2.3-1.2,3.5-1.9c-1-0.6-1.9-1.3-2.9-1.9c-0.2-0.1-0.5-0.1-0.7-0.2
	c-20-5.2-39.9-10.5-59.9-15.7C109.7,358.2,103.1,356.5,96.3,354.7z M441.9,421.5c-1.4,0.3-2.2,0.4-3.1,0.7
	c-16.7,4.7-33.3,9.4-50,14.1c-1,0.3-2,1-2.6,1.8c-1.5,2.2-3.3,3.6-6.1,3.7c-1,0-2.1,0.1-3,0.5c-0.8,0.4-1.9,1.2-2,1.9
	c-0.1,0.7,0.7,1.8,1.4,2.4c0.9,0.7,2.1,1,3.2,1.6c2.7,1.5,3.6,3.6,3,6.6c-0.2,1.1-0.6,2.2-0.6,3.2c0,0.6,0.4,1.5,0.9,1.7
	c3.4,1.8,6.8,3.4,10.2,5.1c3.1-4.3,7.1-7.7,12.2-6.7c5.5,1.1,8.1-1.7,10.6-5.4c0.3-0.5,0.8-0.9,1.1-1.4
	C425.3,441.6,433.4,431.8,441.9,421.5z M343.1,300c-0.2,0.1-0.3,0.2-0.5,0.3c1.8,3.5,3.6,7,5.4,10.6c5.9,11.7,11.9,23.5,17.9,35.2
	c0.4,0.8,1.6,1.8,2.3,1.8c7.9-0.7,13,1.9,16.5,8.6c0.3,0.6,1.4,1.3,2.1,1.2c8.1-1.3,16.2-2.7,24.2-4.1c0.9-2.1,0.3-3.3-1.3-4.5
	c-14.7-10.7-29.4-21.6-44-32.4C358,311.2,350.6,305.6,343.1,300z M200.7,380.8c0,11,8.1,19.4,18.8,19.4c11.3,0,19.6-8.2,19.6-19.4
	c0-10.2-8.9-19-19.2-19C209.1,361.9,200.7,370.1,200.7,380.8z M448.4,427.6c-0.3-0.1-0.6-0.3-0.8-0.4c-9.8,12-19.6,24-29.5,36.1
	c3.9,4.1,4.8,8.8,3.3,13.9c-0.4,1.5,0.5,1.9,1.5,2.4c4.6,2.2,9.2,4.3,13.8,6.6c1.9,0.9,3.2,1.2,4.8-0.6c1-1.1,2.6-1.7,4-2.1
	c1.5-0.5,1.9-1.2,1.9-2.7c0.3-16.9,0.7-33.9,1.1-50.8C448.7,429.2,448.5,428.4,448.4,427.6z M372.7,521.7c0.1,0.2,0.2,0.3,0.3,0.5
	c1-0.3,2-0.6,3-0.9c19.1-7,38.1-13.9,57.2-20.9c0.8-0.3,2-1.2,2-1.7c-0.1-1.7,1-3.7-1.6-4.8c-5.3-2.4-10.5-5.2-15.7-7.8
	c-0.6-0.3-1.6-0.3-2,0c-4.9,3.6-10,4.4-15.6,1.8C391.1,499.2,381.9,510.4,372.7,521.7z M342.6,452.1c8.2,0.1,14.8-6.3,14.8-14.4
	c0-7.9-6.7-14.8-14.6-14.9c-7.8-0.1-14.5,6.6-14.6,14.4C328.2,445.9,334,452,342.6,452.1z"/>
</svg>
